<svg width="353" height="76" viewBox="0 0 353 76" fill="none" xmlns="http://www.w3.org/2000/svg">
<path d="M10.395 60.54C9.105 60.54 7.83 60.375 6.57 60.045C5.34 59.715 4.185 59.25 3.105 58.65C2.055 58.02 1.155 57.3 0.405 56.49L4.32 52.53C5.04 53.31 5.895 53.925 6.885 54.375C7.875 54.795 8.955 55.005 10.125 55.005C10.935 55.005 11.55 54.885 11.97 54.645C12.42 54.405 12.645 54.075 12.645 53.655C12.645 53.115 12.375 52.71 11.835 52.44C11.325 52.14 10.665 51.885 9.855 51.675C9.045 51.435 8.19 51.18 7.29 50.91C6.39 50.64 5.535 50.265 4.725 49.785C3.915 49.305 3.255 48.645 2.745 47.805C2.235 46.935 1.98 45.84 1.98 44.52C1.98 43.11 2.34 41.895 3.06 40.875C3.78 39.825 4.8 39 6.12 38.4C7.44 37.8 8.985 37.5 10.755 37.5C12.615 37.5 14.325 37.83 15.885 38.49C17.475 39.12 18.765 40.065 19.755 41.325L15.84 45.285C15.15 44.475 14.37 43.905 13.5 43.575C12.66 43.245 11.835 43.08 11.025 43.08C10.245 43.08 9.66 43.2 9.27 43.44C8.88 43.65 8.685 43.965 8.685 44.385C8.685 44.835 8.94 45.195 9.45 45.465C9.96 45.735 10.62 45.975 11.43 46.185C12.24 46.395 13.095 46.65 13.995 46.95C14.895 47.25 15.75 47.655 16.56 48.165C17.37 48.675 18.03 49.365 18.54 50.235C19.05 51.075 19.305 52.185 19.305 53.565C19.305 55.695 18.495 57.39 16.875 58.65C15.285 59.91 13.125 60.54 10.395 60.54ZM34.2904 60.45C32.8204 60.45 31.4704 60.165 30.2404 59.595C29.0104 59.025 28.0054 58.245 27.2254 57.255C26.4454 56.235 25.9954 55.08 25.8754 53.79V44.565C25.9954 43.275 26.4454 42.105 27.2254 41.055C28.0054 40.005 29.0104 39.18 30.2404 38.58C31.4704 37.98 32.8204 37.68 34.2904 37.68C36.3604 37.68 38.1904 38.175 39.7804 39.165C41.4004 40.155 42.6604 41.505 43.5604 43.215C44.4904 44.925 44.9554 46.875 44.9554 49.065C44.9554 51.255 44.4904 53.205 43.5604 54.915C42.6604 56.625 41.4004 57.975 39.7804 58.965C38.1904 59.955 36.3604 60.45 34.2904 60.45ZM33.0304 54.24C34.0204 54.24 34.8754 54.015 35.5954 53.565C36.3454 53.115 36.9304 52.5 37.3504 51.72C37.7704 50.94 37.9804 50.055 37.9804 49.065C37.9804 48.045 37.7704 47.145 37.3504 46.365C36.9304 45.585 36.3454 44.985 35.5954 44.565C34.8754 44.115 34.0354 43.89 33.0754 43.89C32.1154 43.89 31.2604 44.115 30.5104 44.565C29.7904 44.985 29.2204 45.585 28.8004 46.365C28.3804 47.145 28.1704 48.045 28.1704 49.065C28.1704 50.055 28.3654 50.94 28.7554 51.72C29.1754 52.5 29.7604 53.115 30.5104 53.565C31.2604 54.015 32.1004 54.24 33.0304 54.24ZM21.6904 69.225V38.13H28.5754V43.755L27.4504 49.065L28.4854 54.375V69.225H21.6904ZM57.903 60.495C55.533 60.495 53.418 60.015 51.558 59.055C49.728 58.065 48.288 56.7 47.238 54.96C46.188 53.22 45.663 51.255 45.663 49.065C45.663 46.875 46.173 44.925 47.193 43.215C48.243 41.475 49.653 40.11 51.423 39.12C53.193 38.13 55.188 37.635 57.408 37.635C59.568 37.635 61.473 38.1 63.123 39.03C64.773 39.96 66.063 41.25 66.993 42.9C67.953 44.55 68.433 46.44 68.433 48.57C68.433 48.96 68.403 49.38 68.343 49.83C68.313 50.25 68.238 50.745 68.118 51.315L49.263 51.36V46.635L65.193 46.59L62.223 48.57C62.193 47.31 61.998 46.275 61.638 45.465C61.278 44.625 60.738 43.995 60.018 43.575C59.328 43.125 58.473 42.9 57.453 42.9C56.373 42.9 55.428 43.155 54.618 43.665C53.838 44.145 53.223 44.835 52.773 45.735C52.353 46.635 52.143 47.73 52.143 49.02C52.143 50.31 52.368 51.42 52.818 52.35C53.298 53.25 53.958 53.955 54.798 54.465C55.668 54.945 56.688 55.185 57.858 55.185C58.938 55.185 59.913 55.005 60.783 54.645C61.653 54.255 62.418 53.685 63.078 52.935L66.858 56.715C65.778 57.975 64.473 58.92 62.943 59.55C61.413 60.18 59.733 60.495 57.903 60.495ZM81.2064 60.495C78.8364 60.495 76.7214 60.015 74.8614 59.055C73.0314 58.065 71.5914 56.7 70.5414 54.96C69.4914 53.22 68.9664 51.255 68.9664 49.065C68.9664 46.875 69.4764 44.925 70.4964 43.215C71.5464 41.475 72.9564 40.11 74.7264 39.12C76.4964 38.13 78.4914 37.635 80.7114 37.635C82.8714 37.635 84.7764 38.1 86.4264 39.03C88.0764 39.96 89.3664 41.25 90.2964 42.9C91.2564 44.55 91.7364 46.44 91.7364 48.57C91.7364 48.96 91.7064 49.38 91.6464 49.83C91.6164 50.25 91.5414 50.745 91.4214 51.315L72.5664 51.36V46.635L88.4964 46.59L85.5264 48.57C85.4964 47.31 85.3014 46.275 84.9414 45.465C84.5814 44.625 84.0414 43.995 83.3214 43.575C82.6314 43.125 81.7764 42.9 80.7564 42.9C79.6764 42.9 78.7314 43.155 77.9214 43.665C77.1414 44.145 76.5264 44.835 76.0764 45.735C75.6564 46.635 75.4464 47.73 75.4464 49.02C75.4464 50.31 75.6714 51.42 76.1214 52.35C76.6014 53.25 77.2614 53.955 78.1014 54.465C78.9714 54.945 79.9914 55.185 81.1614 55.185C82.2414 55.185 83.2164 55.005 84.0864 54.645C84.9564 54.255 85.7214 53.685 86.3814 52.935L90.1614 56.715C89.0814 57.975 87.7764 58.92 86.2464 59.55C84.7164 60.18 83.0364 60.495 81.2064 60.495ZM103.025 60.45C100.955 60.45 99.1097 59.955 97.4897 58.965C95.8997 57.975 94.6397 56.625 93.7097 54.915C92.8097 53.205 92.3597 51.255 92.3597 49.065C92.3597 46.875 92.8097 44.925 93.7097 43.215C94.6397 41.505 95.8997 40.155 97.4897 39.165C99.1097 38.175 100.955 37.68 103.025 37.68C104.525 37.68 105.875 37.965 107.075 38.535C108.305 39.105 109.31 39.9 110.09 40.92C110.9 41.91 111.35 43.05 111.44 44.34V53.565C111.35 54.855 110.915 56.025 110.135 57.075C109.355 58.095 108.35 58.92 107.12 59.55C105.89 60.15 104.525 60.45 103.025 60.45ZM104.24 54.24C105.23 54.24 106.085 54.03 106.805 53.61C107.525 53.16 108.095 52.545 108.515 51.765C108.935 50.985 109.145 50.085 109.145 49.065C109.145 48.045 108.935 47.16 108.515 46.41C108.125 45.63 107.555 45.015 106.805 44.565C106.085 44.115 105.245 43.89 104.285 43.89C103.325 43.89 102.47 44.115 101.72 44.565C101 45.015 100.415 45.63 99.9647 46.41C99.5447 47.19 99.3347 48.075 99.3347 49.065C99.3347 50.055 99.5447 50.94 99.9647 51.72C100.385 52.5 100.97 53.115 101.72 53.565C102.47 54.015 103.31 54.24 104.24 54.24ZM115.625 60H108.875V54.105L109.91 48.795L108.74 43.485V27.33H115.625V60Z" fill="#B4B4B4"/>
<path d="M136.5 60.6C133.22 60.6 130.42 60 128.1 58.8C125.78 57.6 123.72 55.86 121.92 53.58L125.76 49.74C127.08 51.58 128.6 52.98 130.32 53.94C132.04 54.86 134.16 55.32 136.68 55.32C139.16 55.32 141.14 54.78 142.62 53.7C144.14 52.62 144.9 51.14 144.9 49.26C144.9 47.7 144.54 46.44 143.82 45.48C143.1 44.52 142.12 43.74 140.88 43.14C139.68 42.5 138.36 41.94 136.92 41.46C135.48 40.94 134.04 40.4 132.6 39.84C131.16 39.24 129.84 38.52 128.64 37.68C127.44 36.8 126.46 35.66 125.7 34.26C124.98 32.86 124.62 31.1 124.62 28.98C124.62 26.62 125.18 24.62 126.3 22.98C127.46 21.3 129.02 20.02 130.98 19.14C132.98 18.22 135.22 17.76 137.7 17.76C140.42 17.76 142.86 18.3 145.02 19.38C147.18 20.42 148.94 21.8 150.3 23.52L146.46 27.36C145.22 25.92 143.88 24.84 142.44 24.12C141.04 23.4 139.42 23.04 137.58 23.04C135.34 23.04 133.56 23.54 132.24 24.54C130.92 25.5 130.26 26.86 130.26 28.62C130.26 30.02 130.62 31.16 131.34 32.04C132.1 32.88 133.08 33.6 134.28 34.2C135.48 34.8 136.8 35.36 138.24 35.88C139.72 36.36 141.18 36.9 142.62 37.5C144.06 38.1 145.38 38.86 146.58 39.78C147.78 40.7 148.74 41.9 149.46 43.38C150.22 44.82 150.6 46.64 150.6 48.84C150.6 52.52 149.32 55.4 146.76 57.48C144.24 59.56 140.82 60.6 136.5 60.6ZM167.308 60V19.56H172.948V60H167.308ZM153.148 23.52V18.36H187.048V23.52H153.148ZM197.548 41.88V37.14H208.828C211.268 37.14 213.148 36.52 214.468 35.28C215.788 34.04 216.448 32.36 216.448 30.24C216.448 28.24 215.788 26.58 214.468 25.26C213.188 23.94 211.328 23.28 208.888 23.28H197.548V18.36H209.068C211.708 18.36 214.008 18.88 215.968 19.92C217.928 20.92 219.428 22.3 220.468 24.06C221.548 25.82 222.088 27.84 222.088 30.12C222.088 32.48 221.548 34.54 220.468 36.3C219.428 38.06 217.928 39.44 215.968 40.44C214.008 41.4 211.708 41.88 209.068 41.88H197.548ZM193.768 60V18.36H199.408V60H193.768ZM217.768 60L202.648 41.34L207.988 39.48L224.908 60H217.768ZM230.74 60V18.36H236.38V60H230.74ZM234.58 60V54.84H258.46V60H234.58ZM234.58 41.16V36.24H256.48V41.16H234.58ZM234.58 23.52V18.36H258.16V23.52H234.58ZM263.071 60L280.111 18.36H284.191L301.171 60H295.051L281.071 24.78H283.171L269.071 60H263.071ZM271.171 50.58V45.66H293.071V50.58H271.171ZM307.44 60V18.36H311.4L329.04 47.34H326.34L343.98 18.36H347.94V60H342.3V28.26L343.62 28.62L329.7 51.48H325.74L311.82 28.62L313.08 28.26V60H307.44Z" fill="#F55757"/>
</svg>
